# xmcd
#
# Track frame offsets:
#	150
#	11791
#	25490
#	36923
#	48704
#	62236
#	74634
#	87184
#	102370
#	113617
#	122077
#	132920
#
# Disc length: 1971 seconds
#
# Revision: 1
# Processed by: cddbd v1.5.2PL0 Copyright (c) Steve Scherf et al.
# Submitted via: audiograbber 1.83.01
#
DISCID=ae07b10c
DTITLE=Various Artist - The Hee Haw Collection - It Must Be Love
DYEAR=2007
DGENRE=Country
TTITLE0=Crystal Gayle - Don't Make My Brown Eyes Blue
TTITLE1=Oak Ridge Boys - Leaving Louisiana in the Broad Daylight
TTITLE2=Loretta Lynn and Conway Twitty - Louisiana Woman, Mississippi Man
TTITLE3=Jerry Lee Lewis - What's Made Milwaukee Famous (Has Made a Loser out of
TTITLE3=Me)
TTITLE4=Faron Young - It's Four in the Morning
TTITLE5=Freddy Fender - Wasted Days And Wasted Nights
TTITLE6=Donna Fargo - Funny Face
TTITLE7=Jessi Colter - I'm Not Lisa
TTITLE8=Don Williams - It Must Be Love
TTITLE9=Roger Miller - Dang Me
TTITLE10=George Jones and Tammy Wynette - We Loved It Away
TTITLE11=Roy Clark - Yesterday, When I Was Young
EXTD=
EXTT0=
EXTT1=
EXTT2=
EXTT3=
EXTT4=
EXTT5=
EXTT6=
EXTT7=
EXTT8=
EXTT9=
EXTT10=
EXTT11=
PLAYORDER=
